<?xml version="1.0" encoding="UTF-8"?>
<svg version="1.1" xmlns="http://www.w3.org/2000/svg"
     viewBox="0 0 1254 1254" preserveAspectRatio="xMidYMid meet">
  <defs>
    <linearGradient id="crowdGrad" x1="0" y1="0" x2="1" y2="1">
      <stop offset="0" stop-color="#7C3AED"/>
      <stop offset="0.45" stop-color="#4F6BF0"/>
      <stop offset="0.75" stop-color="#2E9BE6"/>
      <stop offset="1" stop-color="#1FD3D8"/>
    </linearGradient>
  </defs>
  <g transform="translate(0,1254) scale(0.1,-0.1)" fill="url(#crowdGrad)" stroke="none">
    <path d="M6413 10275 c-964 -100 -1842 -558 -2445 -1276 -240 -285 -282 -643
-124 -1051 77 -198 70 -61 73 -1482 2 -828 0 -1298 -7 -1333 -5 -30 -34 -116
-64 -191 -65 -163 -85 -236 -97 -356 -22 -216 60 -482 198 -638 546 -619 1200
-1028 1958 -1223 480 -123 1094 -139 1580 -40 892 182 1689 677 2211 1375 89
118 147 232 182 358 38 135 39 352 3 482 -83 296 -307 542 -577 634 -384 130
-783 -12 -992 -354 -94 -153 -283 -342 -482 -482 -803 -561 -1865 -431 -2544
311 -639 699 -716 1799 -181 2596 614 916 1811 1168 2700 569 196 -132 387
-314 488 -464 156 -231 377 -372 630 -401 662 -74 1170 610 925 1245 -111 288
-606 820 -1028 1105 -484 328 -990 518 -1606 607 -153 22 -627 27 -801 9z"/>
    <path d="M3195 7962 c-68 -33 -126 -92 -158 -160 l-22 -47 -3 -1314 c-3 -1442
-6 -1364 57 -1463 122 -191 410 -171 519 36 l27 51 0 1350 0 1350 -27 52 c-79
150 -252 214 -393 145z"/>
    <path d="M6792 7713 c-65 -32 -62 10 -62 -883 0 -445 -3 -810 -7 -810 -5 0
-35 9 -69 19 -238 75 -517 4 -697 -176 -295 -294 -188 -697 213 -799 93 -23
307 -15 405 16 231 73 412 241 466 430 9 34 12 205 11 723 l-2 678 23 -6 c12
-4 69 -27 127 -52 279 -118 383 -235 398 -447 8 -97 18 -114 65 -103 20 6 37
31 91 139 83 166 99 229 94 363 -7 208 -104 324 -413 500 -230 131 -406 261
-491 364 -47 56 -97 71 -152 44z"/>
    <path d="M2373 7171 c-81 -21 -146 -76 -190 -161 l-28 -55 0 -540 c0 -537 0
-540 22 -588 110 -238 414 -245 525 -12 l28 60 0 535 0 535 -24 51 c-61 132
-205 207 -333 175z"/>
  </g>
</svg>
